<svg xmlns="http://www.w3.org/2000/svg" viewBox="0 0 1200 630">
  <rect width="1200" height="630" fill="#0f1117"/>
  <rect x="1" y="1" width="1198" height="628" rx="0" fill="none" stroke="#252d40" stroke-width="2"/>
  <circle cx="600" cy="315" r="220" fill="none" stroke="#6366f1" stroke-width="2.5"/>
  <circle cx="600" cy="315" r="160" fill="none" stroke="#4f46e5" stroke-width="1.5" opacity="0.5"/>
  <circle cx="600" cy="315" r="95" fill="none" stroke="#4f46e5" stroke-width="1" opacity="0.3"/>
  <line x1="600" y1="95" x2="600" y2="535" stroke="#6366f1" stroke-width="0.8" opacity="0.2"/>
  <line x1="380" y1="315" x2="820" y2="315" stroke="#6366f1" stroke-width="0.8" opacity="0.2"/>
  <line x1="444" y1="159" x2="756" y2="471" stroke="#6366f1" stroke-width="0.8" opacity="0.2"/>
  <line x1="756" y1="159" x2="444" y2="471" stroke="#6366f1" stroke-width="0.8" opacity="0.2"/>
  <polygon points="600,271 634,291 634,331 600,351 566,331 566,291" fill="#161b27" stroke="#252d40" stroke-width="1.5"/>
  <text x="600" y="338" text-anchor="middle" font-family="system-ui,sans-serif" font-size="52" font-weight="800" fill="#6366f1">S</text>
  <circle cx="600" cy="95" r="9" fill="#6366f1"/>
  <circle cx="820" cy="315" r="7" fill="#10b981"/>
  <circle cx="600" cy="535" r="7" fill="#f59e0b"/>
  <circle cx="380" cy="315" r="7" fill="#3b82f6"/>
  <circle cx="756" cy="159" r="6" fill="#6366f1" opacity="0.7"/>
  <circle cx="756" cy="471" r="6" fill="#ec4899" opacity="0.7"/>
  <circle cx="444" cy="159" r="6" fill="#6366f1" opacity="0.7"/>
  <circle cx="444" cy="471" r="6" fill="#f59e0b" opacity="0.7"/>
  <text x="600" y="590" text-anchor="middle" font-family="system-ui,sans-serif" font-size="28" font-weight="700" fill="#f1f5f9" letter-spacing="-0.5">Sahil<tspan fill="#6366f1">OS</tspan></text>
  <text x="600" y="616" text-anchor="middle" font-family="system-ui,sans-serif" font-size="13" font-weight="500" fill="#6366f1" letter-spacing="4">PERSONAL OPERATING SYSTEM</text>
</svg>
